<svg id="Layer_1" data-name="Layer 1" xmlns="http://www.w3.org/2000/svg" xmlns:xlink="http://www.w3.org/1999/xlink" viewBox="0 0 841.13 492.32"><defs><linearGradient id="linear-gradient" x1="519.84" y1="100.07" x2="486.47" y2="160.68" gradientUnits="userSpaceOnUse"><stop offset="0" stop-color="#63efc6"/><stop offset="1" stop-color="#ffea9c"/></linearGradient><linearGradient id="linear-gradient-2" x1="275.48" y1="285.4" x2="663.21" y2="285.4" gradientUnits="userSpaceOnUse"><stop offset="0" stop-color="#e6ebff"/><stop offset="1" stop-color="#c4d0ff"/></linearGradient><linearGradient id="linear-gradient-3" x1="39.7" y1="368.33" x2="151.48" y2="368.33" gradientUnits="userSpaceOnUse"><stop offset="0" stop-color="#ffc000"/><stop offset="1" stop-color="#ff8600"/></linearGradient><linearGradient id="linear-gradient-4" x1="219.52" y1="315.31" x2="237.09" y2="315.31" xlink:href="#linear-gradient-2"/><linearGradient id="linear-gradient-5" x1="311.48" y1="100.48" x2="401.45" y2="100.48" xlink:href="#linear-gradient-3"/><style>.cls-2{fill:#ffb36d}.cls-21,.cls-3,.cls-36{fill:none}.cls-21,.cls-3{stroke:#101010;stroke-miterlimit:10}.cls-3{stroke-width:.5px}.cls-12,.cls-6{fill:#a4a8f7}.cls-13,.cls-7{fill:#fff}.cls-10{fill:#e6ebff}.cls-11{fill:#d0d9ff}.cls-12,.cls-13{font-size:9.77px;font-family:OpenSans-Semibold,Open Sans;font-weight:700}.cls-14{fill:#afb9ea}.cls-15{fill:#ff553b}.cls-20{fill:#101010}.cls-21{stroke-width:.25px}.cls-23{fill:#00cf89}.cls-25{fill:#00e9a1}.cls-29{fill:#00b280}.cls-30{fill:#102254}.cls-34{fill:#baf7d1}.cls-36{stroke-linecap:round;stroke-linejoin:round;stroke:#c0f9d3;stroke-width:2px}</style></defs><path d="M549.66 177.76l6.79-1a76.43 76.43 0 000-7.91l-6.78-1.06a69.78 69.78 0 00-1.82-11.83l6.1-3.07a77.48 77.48 0 00-2.44-7.52l-6.75 1.09a70.32 70.32 0 00-5.44-10.66l4.88-4.83a78.29 78.29 0 00-4.64-6.41l-6.11 3.14a69.93 69.93 0 00-8.43-8.48l3.14-6.07a74.93 74.93 0 00-6.39-4.67l-4.77 4.79a69.68 69.68 0 00-10.67-5.43l1.11-6.78a76 76 0 00-7.52-2.45l-3.11 6.12a72.52 72.52 0 00-9.24-1.65c-.86-.1-1.72-.15-2.57-.22l-1-6.79a78.69 78.69 0 00-7.91 0l-1.09 6.76a69.12 69.12 0 00-11.83 1.83l-3.07-6.1a76.59 76.59 0 00-7.52 2.44l1.09 6.75a70.37 70.37 0 00-10.67 5.43l-4.83-4.88a77.49 77.49 0 00-6.41 4.65l3.13 6.1a70.32 70.32 0 00-8.48 8.43l-6.08-3.14a77.09 77.09 0 00-4.66 6.39l4.84 4.82a69.88 69.88 0 00-5.43 10.66l-6.78-1.1a74.66 74.66 0 00-2.46 7.52l6.13 3.1a70.19 70.19 0 00-1.67 9.27c-.09.86-.15 1.71-.22 2.57l-6.78 1a75 75 0 000 7.91l6.78 1.06a69.56 69.56 0 001.83 11.83l-6.1 3.07a76.72 76.72 0 002.43 7.53l6.76-1.08a69.29 69.29 0 005.44 10.65l-4.88 4.83c1.44 2.21 3 4.36 4.64 6.4l6.12-3.13a69.38 69.38 0 008.43 8.49l-3.14 6.08a78.32 78.32 0 006.39 4.67l4.82-4.85a69.17 69.17 0 0010.66 5.44l-1.11 6.78a78.11 78.11 0 007.52 2.46l3.11-6.13a70.6 70.6 0 009.24 1.67c.86.09 1.71.15 2.57.22l1 6.79q4 .2 7.91 0l1.06-6.79a69.12 69.12 0 0011.83-1.83l3.07 6.1a74.53 74.53 0 007.52-2.43l-1.08-6.76a70.24 70.24 0 0010.65-5.43l4.83 4.88a77 77 0 006.41-4.65l-3.13-6.11a70.75 70.75 0 008.49-8.43l6.07 3.13a77.63 77.63 0 004.67-6.37l-4.84-4.83a69.38 69.38 0 005.43-10.66l6.78 1.1a76.32 76.32 0 002.45-7.51l-6.13-3.11a69.53 69.53 0 001.67-9.25c.07-.84.13-1.69.19-2.55zm-35.54-1.33a34.46 34.46 0 11-30.46-38 34.46 34.46 0 0130.46 38z" fill="url(#linear-gradient)"/><rect class="cls-2" x="73.65" y="139.52" width="28.65" height="37.43" rx="14.33" ry="14.33" transform="rotate(-18.43 87.976 158.257)"/><path class="cls-3" d="M91.94 154.24s.75-3.76 5.29-3.36"/><path class="cls-2" d="M101.07 153.21a34.74 34.74 0 001.48 6.38 10.85 10.85 0 002.55-2 1.27 1.27 0 00-.23-1.85c-1.58-1.15-3-1.73-4.32-3.69"/><path class="cls-3" d="M100.8 161.57a6.1 6.1 0 003.13-.16"/><path class="cls-2" d="M81.58 156c-2.33-1.94-6.75 1.43-4.36 4.11 2 2.23 6.2 1 6.16-2.05"/><rect x="374.36" y="13.85" width="89.98" height="68.6" rx="8" ry="8" fill="#a6a6f7"/><path stroke="#fff" stroke-width="3" stroke-miterlimit="10" fill="none" d="M368.65 17.89l50.7 35.12 49.77-33.35"/><rect class="cls-6" x="151.48" y="80.14" width="149.65" height="252.53" rx="6" ry="6"/><path class="cls-7" d="M164.64 85.89H290a6 6 0 016 6v206.85H158.64V91.89a6 6 0 016-6z"/><circle class="cls-2" cx="695.32" cy="142.4" r="4.54"/><rect x="275.48" y="164.84" width="387.73" height="241.11" rx="6" ry="6" fill="url(#linear-gradient-2)"/><rect class="cls-7" x="413.15" y="177.32" width="235.65" height="213.26" rx="6" ry="6"/><path d="M426.48 216.65h210.34m-210.34 39.34h210.34m-325.34 39.34h325.34m-210.34 39.34h210.34m-210.34 39.34h210.34" stroke="#d0d9ff" fill="#fff" stroke-miterlimit="10"/><path class="cls-10" d="M508.01 187.94h128.81v9.57H508.01z"/><path class="cls-11" d="M449.5 196.84h49.1v9.57h-49.1z"/><text class="cls-12" transform="translate(508.01 210.27)">Total (1 hour, 40 min)</text><path class="cls-10" d="M508.01 226.75h128.81v9.57H508.01z"/><text class="cls-12" transform="translate(508.01 249.08)">Total (59 min, 10 sec)</text><path class="cls-10" d="M508.01 265.56h128.81v9.57H508.01z"/><text class="cls-12" transform="translate(508.01 287.89)">Total (1 hour, 50 sec)</text><path class="cls-10" d="M508.01 304.37h128.81v9.57H508.01z"/><text class="cls-12" transform="translate(508.01 326.69)">Total (1 hour, 1 min)</text><path class="cls-10" d="M508.01 343.17h128.81v9.57H508.01z"/><text class="cls-12" transform="translate(508.01 365.5)">Total (1 hour, 39 min)</text><rect class="cls-6" x="305.14" y="226.68" width="90.37" height="15.44" rx="5.87" ry="5.87"/><rect class="cls-6" x="311.48" y="333.58" width="77.21" height="15.44" rx="5.87" ry="5.87"/><text class="cls-13" transform="translate(311.48 237.92)">WAITING REVIEW</text><text class="cls-13" transform="translate(317.99 345.32)">CODE REVIEW</text><circle class="cls-11" cx="435.67" cy="201.62" r="9.19"/><path class="cls-14" d="M435.67 210.82a9.17 9.17 0 007.25-3.55c-.58-1.41-2.51-2-3.82-2.88a4.66 4.66 0 01-1.7-2.14 3 3 0 10-2.69.4c-.35 1.17-1.7 2.06-2.61 2.69a5.39 5.39 0 00-2.44 3.24 9.15 9.15 0 006.01 2.24z"/><path class="cls-11" d="M449.5 236.25h49.1v9.57h-49.1z"/><circle class="cls-11" cx="435.67" cy="241.04" r="9.19"/><path class="cls-14" d="M435.67 250.23a9.17 9.17 0 007.25-3.55c-.58-1.41-2.51-2-3.82-2.88a4.66 4.66 0 01-1.7-2.14 3 3 0 10-2.69.4c-.35 1.17-1.7 2.06-2.61 2.69a5.39 5.39 0 00-2.44 3.24 9.15 9.15 0 006.01 2.24z"/><path class="cls-11" d="M449.5 276.75h49.1v9.57h-49.1z"/><circle class="cls-11" cx="435.67" cy="281.53" r="9.19"/><path class="cls-14" d="M435.67 290.73a9.17 9.17 0 007.25-3.55c-.58-1.41-2.51-2-3.82-2.88a4.66 4.66 0 01-1.7-2.14 3 3 0 10-2.69.4c-.35 1.17-1.7 2.06-2.61 2.69a5.39 5.39 0 00-2.44 3.24 9.15 9.15 0 006.01 2.24z"/><path class="cls-11" d="M449.5 315.18h49.1v9.57h-49.1z"/><circle class="cls-11" cx="435.67" cy="319.97" r="9.19"/><path class="cls-14" d="M435.67 329.16a9.17 9.17 0 007.25-3.55c-.58-1.41-2.51-2-3.82-2.88a4.66 4.66 0 01-1.7-2.14 3 3 0 10-2.69.4c-.35 1.17-1.7 2.06-2.61 2.69a5.39 5.39 0 00-2.44 3.24 9.15 9.15 0 006.01 2.24z"/><path class="cls-11" d="M449.5 355.68h49.1v9.57h-49.1z"/><circle class="cls-11" cx="435.67" cy="360.46" r="9.19"/><path class="cls-14" d="M435.67 369.66a9.17 9.17 0 007.25-3.55c-.58-1.41-2.51-2-3.82-2.88a4.66 4.66 0 01-1.7-2.14 3 3 0 10-2.69.4c-.35 1.17-1.7 2.06-2.61 2.69a5.39 5.39 0 00-2.44 3.24 9.15 9.15 0 006.01 2.24z"/><rect class="cls-2" x="694.02" y="123.67" width="31.09" height="40.62" rx="9.86" ry="9.86" transform="rotate(-173.51 709.56 143.986)"/><path class="cls-15" d="M687.78 247.25l57.56.27S766.66 219.39 729 174l-31.21 1.18a12 12 0 00-11.19 9.27c-2.3 10.16-4.32 29.78 1.18 62.8z"/><path class="cls-15" d="M734.28 219.67l31.54-7.87S759.07 176.94 729 174c-15.89-1.58-10.58 29.81 5.28 45.67z"/><path d="M701 468.09s-26.68-2.52-32.17 9.88h49.07l-.29-9.88zm90.6.31s25.93-2.75 31.26 10.78h-47.7l.28-10.78z" fill="#111860"/><path fill="#006dfa" d="M687.48 246.96l57.21.01 64.24 221.38h-38.14L720.6 294v174.35h-33.12V246.97"/><path stroke="#006bff" stroke-miterlimit="10" fill="none" d="M720.6 294l-5.76-13.4"/><path d="M759.48 213.07s9.87 48.61 5 53.49-13.11-12.38-13.11-12.38l-4.83-38.11z" fill="#ef9f5e"/><path class="cls-2" d="M730.26 216.15s9.32 44.13 17.95 52.76 18.13-.22 18.13-9.3-29.71-49.49-29.71-49.49z"/><path class="cls-20" d="M694.35 133.1c2.89 1.56 6.93.58 9.54-.69 1.81 6.94 10 .81 12.73-1.51.73 2.79 1.75 7.68 5 8.66 4 1.19 7.06-3.11 7.19-6.53.54-14.23-22.23-18.31-30.42-9-1.97 2.24-4.39 6.64-4.04 9.07z"/><circle class="cls-2" cx="725.21" cy="142.4" r="4.54"/><path class="cls-2" d="M707.27 164.16v16.19s.61 2.9 5 2.9a7.07 7.07 0 006.16-3.29v-18.9z"/><path class="cls-21" d="M698.43 137.86s3.52-1.53 6 .93m.97 14.77a11.15 11.15 0 006.94-1m-1.07-13.77s4.39-2.55 7.15 1.63m-11.15 1.98s-2.9 4.62-1.86 5.66a1.19 1.19 0 001.86 0"/><path d="M85.93 271.4s.69-2.16-9.11 22.44C61.94 331.22 39.7 464.6 39.7 464.6h36.83l28.87-150.66 12.11 151.45h34s-2-87.55-6.33-116.36c-3-19.86-8.73-53.69-19.22-77.75z" fill="url(#linear-gradient-3)"/><path class="cls-23" d="M84.53 271.27s-10.24-36.08-1.15-63.63L81.59 198a13.24 13.24 0 0119.58-12.85c4 2.21 9.59 4 11.52 8.47 3.41 8 6.07 11.64 11.58 25.68 7.3 18.61 1.66 52 1.66 52z"/><path class="cls-2" d="M112.69 214.79s24.41 10.85 36.64 10.85 33.12-46.58 33.12-46.58l-9.67-7.32-25.21 35.35-34.88-13.46s-10.9 10.26 0 21.16z"/><circle cx="204.98" cy="128.96" r="38.03" fill="#00e04c" opacity=".37"/><circle class="cls-25" cx="204.98" cy="128.96" r="32.11"/><path class="cls-10" d="M275.48 255.99l-55.18-87.82 55.18 24.26v63.56z"/><circle cx="228.3" cy="315.31" r="8.78" fill="url(#linear-gradient-4)"/><circle class="cls-6" cx="579.83" cy="125.49" r="56.37"/><circle class="cls-7" cx="579.83" cy="125.49" r="47.16"/><path fill="#5662d6" d="M577.2 93.55h5.27v31.94h-5.27z"/><path class="cls-6" transform="rotate(-40.69 566.567 136.784)" d="M547.89 134.16h37.33v5.26h-37.33z"/><circle class="cls-6" cx="579.42" cy="125.67" r="6.85"/><path d="M393.45 54h-74a8 8 0 00-8 8v52.6a8 8 0 008 8h9.37l-6.16 24.32 23.34-24.3h47.48a8 8 0 008-8V62a8 8 0 00-8.03-8z" fill="url(#linear-gradient-5)"/><circle class="cls-7" cx="334.33" cy="86.8" r="6.75"/><circle class="cls-7" cx="356.47" cy="86.8" r="6.75"/><circle class="cls-7" cx="378.6" cy="86.8" r="6.75"/><path class="cls-29" d="M136.41 202.78l-3.57 19.57s-37.65-3.9-42.9-9.15c-8.67-8.67-1.32-25.73 8.06-25.73s38.41 15.31 38.41 15.31z"/><path class="cls-2" d="M86.41 173.92v12.56l11.6-2.58v-9.98h-11.6z"/><path class="cls-7" d="M92.69 157.78s.84-5.44 7-4c-.04 0-.99 5.62-7 4z"/><circle class="cls-20" cx="96.63" cy="155.68" r="1.81" transform="rotate(-31.8 96.748 155.023)"/><path class="cls-30" d="M83.38 139.43s13.84-2 12.79 4.35C95 150.81 83 157.27 83 171.2c0 18.31 9.7 31.47 5 57.14 0 0-30.2 1.15-42.45-11.1 0 0-2.08-8.24 4.82-21.55 5.2-10 15.69-24.11 17.49-34 3.26-18 7.5-19.85 15.52-22.26z"/><circle class="cls-2" cx="83.97" cy="159.82" r="4.01"/><path class="cls-3" d="M83 158.38a4.32 4.32 0 013.54 3.06m-3.06-.8a7.33 7.33 0 011.61-1.45"/><circle class="cls-30" cx="70.87" cy="139.92" r="5.34"/><path class="cls-2" d="M172.7 172c1.76-2.25 3.13-3.84 5.87-5 3-1.31 8.49-3.85 11.81-3.2-1.56 2.06-4.75 2.62-6.59 4.31 4.21-.63 8.45-1.85 12.94-1.55-1.47 2-7 2.57-9.51 3.2 3.2.27 7.44-.71 10.35 1-2.38 1.85-7.51.85-10.4 1.53 2.11.44 9.57-.2 10.39 2-4.3 1.46-10.33-1.47-13.45 2.31-2.35 2.86-2.27 4.16-6.93 3.26-5.18-1.14-4.6-3.98-4.48-7.86z"/><path d="M96.63 209.27s11.4 32.54 31.31 40.23l-3.67-30.2z" fill="#0db276" opacity=".51"/><path fill="#ef964d" d="M98.01 173.92l-6.07 2.57 6.07 1.04v-3.61z"/><rect class="cls-23" x="84.53" y="181.2" width="16.26" height="6.28" rx="3.14" ry="3.14"/><path d="M87.67 181.2v6.28m2.28-6.28v6.28m2.28-6.28v6.28m2.27-6.28v6.28m2.28-6.28v6.28m2.28-6.28v6.28" stroke="#afefd8" stroke-width=".5" stroke-miterlimit="10" fill="none"/><path class="cls-30" d="M121.32 465.38v9.38h48.37s-9-9.38-24.55-4.69v-4.69zm-74.63 0v9.38h48.37s-9-9.38-24.55-4.69v-4.69z"/><path class="cls-2" d="M628.24 271.14c-4-1.95-7.9 3.92-8.44 7l3.43 3.13a24.29 24.29 0 014.05-1.11c.62-2.16 5.72-6.71.96-9.02z"/><rect class="cls-34" x="169.69" y="209.99" width="73.32" height="8.99" rx="4.49" ry="4.49"/><rect class="cls-34" x="169.69" y="225.17" width="52.02" height="8.99" rx="4.49" ry="4.49"/><rect class="cls-34" x="224.73" y="225.17" width="18.28" height="8.99" rx="4.49" ry="4.49"/><rect class="cls-34" x="169.69" y="240.34" width="73.32" height="8.99" rx="4.49" ry="4.49"/><rect class="cls-34" x="169.69" y="255.52" width="27.88" height="8.99" rx="4.49" ry="4.49"/><rect class="cls-34" x="200.43" y="255.52" width="42.58" height="8.99" rx="4.49" ry="4.49"/><rect class="cls-34" x="169.69" y="270.69" width="73.32" height="8.99" rx="4.49" ry="4.49"/><path stroke-linecap="round" stroke-linejoin="round" stroke="#fff" stroke-width="3" fill="none" d="M191.29 126.06l12.84 13.66 14.54-21.52"/><path class="cls-29" d="M271.71 476.13c1.3-20.2-12.79-21.91-20.53-37.06-4.1-8-4.54-12.05-11.32-16.76-2.16-1.5-10.34-8.53-16.86-7.9-11.55 1.12-16.11 23.9-9.65 32.8 8.88 12.23 2.81 13.23 4.6 20.66 1.87 7.8 14.69 7.94 17.19 8.27 13.06 1.69 23.39-2.42 36.57-.01z"/><path class="cls-25" d="M231.51 466.42a33.29 33.29 0 003.63 10.18h71.18l.39-.15c9.11-10.66 4.74-20.12-2.71-25.73-4-3-8.31-6-10.77-9.82-4.72-7.3 3.49-18.91 2.84-27-.79-9.73-9-20.21-20.56-23.39-5.47-1.5-12.36-.74-17.12-3.67-4.42-2.71-5.41-8.05-9-11.25-8.21-7.39-18.82-2-22.06 6.57-2.19 5.8.71 11.46.6 17.31-.09 5.23-3.15 9.58-5.12 14.37-4.65 11.29 1.11 19.48 6.83 29.53 4.65 8.17.67 14.63 1.87 23.05z"/><path class="cls-36" d="M242.22 384.39s-.32 43.11 30.46 92.21m-20.55-14.54l17.61 9.43m-20.14-46.68s8.56-19.32 25.89-29.11"/><path class="cls-25" d="M322.23 475.44c1.23-9.4 7.4-13.49 10.74-21.48 3.08-7.38 14-19.18 22-23.09 7.37-3.6 15.82-1.62 13.58 7.8-1.32 5.55-7.41 8-8.81 13.71-2.17 8.72 4.36 17.44-4.93 20.86-8.55 3.16-22.65 1.33-32.58 2.2z"/><path class="cls-36" d="M338.14 474.64c3.5-13.62 10.8-26.87 22.28-35.8m-10.34 23.87a44.12 44.12 0 00-8.75 2.39"/><path class="cls-7" d="M697.38 143.32a4.64 4.64 0 017 0s-2.7 4.29-7 0z"/><path class="cls-7" d="M697.38 143.32a4.64 4.64 0 017 0s-2.7 4.29-7 0z"/><path class="cls-20" d="M697.38 143.32c1.8 1.8 3.33 2.08 4.5 1.81a2.58 2.58 0 000-3.34 5 5 0 00-4.5 1.53z"/><path class="cls-7" d="M710.45 143.32a4.64 4.64 0 017 0s-2.71 4.29-7 0z"/><path class="cls-20" d="M710.45 143.32c1.8 1.8 3.33 2.08 4.5 1.81a2.58 2.58 0 000-3.34 5 5 0 00-4.5 1.53z"/><path class="cls-21" d="M723 144c.86-1.47 2.75-3.49 4.56-3.6m-2.68 1.46a3.5 3.5 0 012.21 1m-34.62-2.03c.6.45 1.59 1.09 1.76 1.84m-1.98-.29a2.21 2.21 0 011.1-.81"/><path fill="#e58b41" d="M714.48 164.84l-7.21-.68v3.5l7.21-2.82z"/><path class="cls-7" d="M732.29 229.42h-30.31l-6.34-40h30.31l6.34 40z"/><path class="cls-20" d="M719.39 188.06H715c-1.93-3.86-6.54-3.78-7.8 0h-4.17a1.14 1.14 0 00-1.15 1.37 1.66 1.66 0 001.58 1.37h16.33a1.14 1.14 0 001.15-1.37 1.66 1.66 0 00-1.55-1.37z"/><path stroke="#a81d16" stroke-miterlimit="10" fill="none" d="M730.88 194.78l5.09 18.29"/><path class="cls-2" d="M727.89 213.78c-2.6-.75-8.36-4-10-6.81 2.91.7 6 2.39 8.8 3.26a23.24 23.24 0 01-7.59-5.9c3.3.5 7 2.6 10.1 4.05-2.27-1.95-6.67-3.57-7.6-6.58 3.1.69 6.4 3.09 9.31 4.58-2.36-1.83-6.2-3.62-7.31-6.57 5.37 1.18 10.44 5.79 13.11 10.53 1.48 2.62 2.59 6.23-.93 7.51-3.78 1.41-5.63-2.19-7.89-4.07zm-56.43 2.4l-6 23.69a20.2 20.2 0 01-10.3 13l-33.86 17.5 5.52 9.9 42-15.51a20.2 20.2 0 0011.58-11.56l6-15.28-1.94-21.26z"/><path class="cls-15" d="M693.35 176.24s-20.28 7-25.46 40.41h16.55z"/><path class="cls-2" d="M621.7 270.14h-.09c-2 1-3.23 2.79-5.11 4-1.55 1-3.61 1.41-5 2.61a.71.71 0 00.37 1.25c2.58.23 7.26-2.39 9-3.37 1.05-.57 4.5-1.83 3.6-3.79-.57-1.17-2.47-.84-2.77-.7z"/><path class="cls-2" d="M628.24 271.14c-4-1.95-7.9 3.92-8.44 7l1.48 3.84a69.28 69.28 0 009.21-3.09c.63-2.19 2.51-5.44-2.25-7.75z"/><path stroke="#263c5e" stroke-miterlimit="10" fill="none" d="M489.51 319.97l152.76-49.96"/><path class="cls-2" d="M619.79 278.16a6.55 6.55 0 00-4.94-1.28.67.67 0 00-.26 1.13 27.89 27.89 0 002.29 1.78c-1.46-.4-4.5-1.62-6.27-1.09a.67.67 0 00-.15 1.18c.88.62 2.05.94 3 1.54-1-.37-6.88-1.69-6.41 0s6.42 2.7 7.7 2.51a37.81 37.81 0 007.48-2.26.67.67 0 00.22-1.12l-2.61-2.38z"/><path d="M619.79 278.13a8.63 8.63 0 012.37 2.47" stroke="#e0883f" stroke-width=".25" stroke-miterlimit="10" fill="none"/><path class="cls-30" d="M42.44 214.49l-2.74-2.41s0-8.25 7-19.76c4.64-7.64 17-17.07 22.12-28.16v9.76S51.1 189.72 48 196.51c-5.56 12.49-5.56 17.98-5.56 17.98z"/><path d="M104.57 316.07c-4.27-1.13-7-6.35-8.19-10.42" stroke="#ffd69f" stroke-miterlimit="10" fill="none"/><path stroke="#bec2ed" stroke-width="2" fill="#e6ebff" stroke-miterlimit="10" d="M0 476.6h431.83"/></svg>